<svg width="80" height="80" viewBox="0 0 80 80" fill="none" xmlns="http://www.w3.org/2000/svg">
<circle cx="40" cy="40" r="40" fill="#156C1E"/>
<mask id="mask0_249_3350" style="mask-type:alpha" maskUnits="userSpaceOnUse" x="15" y="15" width="50" height="50">
<rect x="15" y="15" width="50" height="50" fill="#D9D9D9"/>
</mask>
<g mask="url(#mask0_249_3350)">
<path d="M27.4999 60.8334C26.3541 60.8334 25.3732 60.4254 24.5572 59.6094C23.7412 58.7934 23.3333 57.8125 23.3333 56.6667V35.8334C23.3333 34.6875 23.7412 33.7066 24.5572 32.8907C25.3732 32.0747 26.3541 31.6667 27.4999 31.6667H29.5833V27.5C29.5833 24.6181 30.5989 22.1615 32.6301 20.1302C34.6614 18.099 37.118 17.0834 39.9999 17.0834C42.8819 17.0834 45.3385 18.099 47.3697 20.1302C49.401 22.1615 50.4166 24.6181 50.4166 27.5V31.6667H52.4999C53.6458 31.6667 54.6267 32.0747 55.4426 32.8907C56.2586 33.7066 56.6666 34.6875 56.6666 35.8334V56.6667C56.6666 57.8125 56.2586 58.7934 55.4426 59.6094C54.6267 60.4254 53.6458 60.8334 52.4999 60.8334H27.4999ZM27.4999 56.6667H52.4999V35.8334H27.4999V56.6667ZM39.9999 50.4167C41.1458 50.4167 42.1267 50.0087 42.9426 49.1927C43.7586 48.3768 44.1666 47.3959 44.1666 46.25C44.1666 45.1042 43.7586 44.1233 42.9426 43.3073C42.1267 42.4914 41.1458 42.0834 39.9999 42.0834C38.8541 42.0834 37.8732 42.4914 37.0572 43.3073C36.2412 44.1233 35.8333 45.1042 35.8333 46.25C35.8333 47.3959 36.2412 48.3768 37.0572 49.1927C37.8732 50.0087 38.8541 50.4167 39.9999 50.4167ZM33.7499 31.6667H46.2499V27.5C46.2499 25.7639 45.6423 24.2882 44.427 23.073C43.2117 21.8577 41.736 21.25 39.9999 21.25C38.2638 21.25 36.7881 21.8577 35.5728 23.073C34.3576 24.2882 33.7499 25.7639 33.7499 27.5V31.6667Z" fill="white"/>
</g>
</svg>
