<svg width="5901" height="1103" viewBox="0 0 5901 1103" fill="none" xmlns="http://www.w3.org/2000/svg">
<path d="M1246.97 531.318H806.09V691.573H1246.97V531.318Z" fill="#156C1E"/>
<path fill-rule="evenodd" clip-rule="evenodd" d="M1431.33 2.47754H2120.7V170.745H1615.7V451.191L2064.59 459.203V611.445L1615.7 619.458V1044.13H1431.33V2.47754Z" fill="#156C1E"/>
<path fill-rule="evenodd" clip-rule="evenodd" d="M12.5137 2.47754H822.122V170.745H509.501V1044.13H325.135V170.745H12.5137V2.47754Z" fill="#156C1E"/>
<path fill-rule="evenodd" clip-rule="evenodd" d="M2842.14 811.764L2970.39 891.891C2931.74 942.094 2882.47 983.136 2826.1 1012.08C2747.63 1051.56 2653.58 1056.5 2617.69 1060.16H2617.25C2529.58 1061.03 2388.74 1039.97 2289.04 939.968C2244.69 894.952 2211.71 840.015 2192.85 779.713C2179.65 732.643 2171.59 684.286 2168.8 635.484C2166.78 577.989 2176.39 520.678 2197.05 466.983C2217.71 413.288 2249 364.312 2289.04 322.987C2378.99 230.6 2497.97 194.695 2601.66 194.783C2663.39 195.074 2724.42 208.024 2780.95 232.833C2837.48 257.641 2888.31 293.779 2930.31 339.013C2962.97 382.498 2979.38 431.207 2994.44 483.242C3014.77 553.522 3025.35 627.583 3010.47 699.586H2353.16C2360.67 744.826 2387.52 786.292 2417.29 819.777C2465.39 873.911 2538.52 896.995 2609.67 899.904C2695.74 902.22 2779.26 870.555 2842.14 811.764Z" fill="#156C1E"/>
<path fill-rule="evenodd" clip-rule="evenodd" d="M2353.16 563.369H2842.14C2830.86 506.845 2800.34 455.974 2755.76 419.419C2711.18 382.865 2655.31 362.886 2597.65 362.886C2539.99 362.886 2484.11 382.865 2439.54 419.419C2394.96 455.974 2364.44 506.845 2353.16 563.369Z" fill="white"/>
<path fill-rule="evenodd" clip-rule="evenodd" d="M5708.45 811.011L5836.71 891.138C5798.06 941.341 5748.79 982.383 5692.42 1011.33C5613.95 1050.81 5519.91 1055.75 5484.01 1059.41H5483.57C5395.9 1060.29 5255.06 1039.22 5155.35 939.215C5111.01 894.197 5078.03 839.261 5059.16 778.96C5045.97 731.891 5037.91 683.533 5035.12 634.731C5033.1 577.236 5042.71 519.926 5063.37 466.231C5084.03 412.535 5115.31 363.559 5155.35 322.234C5245.31 229.855 5364.3 193.942 5467.98 194.03C5529.71 194.322 5590.73 207.272 5647.26 232.08C5703.79 256.888 5754.63 293.026 5796.63 338.26C5829.29 381.745 5845.7 430.454 5860.76 482.489C5881.1 552.769 5891.67 626.83 5876.79 698.833H5219.48C5226.98 744.073 5253.84 785.539 5283.61 819.024C5331.7 873.158 5404.84 896.243 5475.99 899.151C5562.06 901.468 5645.57 869.802 5708.45 811.011Z" fill="#156C1E"/>
<path fill-rule="evenodd" clip-rule="evenodd" d="M5219.48 562.616H5708.45C5697.18 506.092 5666.66 455.221 5622.08 418.667C5577.5 382.112 5521.63 362.133 5463.97 362.133C5406.31 362.133 5350.43 382.112 5305.85 418.667C5261.28 455.221 5230.75 506.092 5219.48 562.616Z" fill="white"/>
<path fill-rule="evenodd" clip-rule="evenodd" d="M3162.77 218.821V1044.13H3347.14V523.305C3373.44 428.507 3485.73 365.583 3579.6 371.063C3665.03 376.055 3716.28 436.896 3739.92 523.305L3747.93 1044.13H3924.28V483.242C3925.16 472.576 3925.16 461.856 3924.28 451.191C3918.86 385.446 3877.42 324.013 3813.44 271.489C3763.97 230.84 3702.35 199.767 3635.71 194.783C3529.35 186.818 3403.59 231.554 3331.11 306.961V218.821H3162.77Z" fill="#156C1E"/>
<path fill-rule="evenodd" clip-rule="evenodd" d="M4477.38 931.955C4530.26 938.202 4583.83 929.5 4632.01 906.838C4680.18 884.175 4721.04 848.461 4749.93 803.751L4902.23 875.866C4814.35 1000.97 4674.76 1090.61 4517.46 1092.21C4284.2 1094.61 4049.05 901.018 4044.52 635.484C4039.85 361.448 4283.49 164.816 4517.46 162.733C4675.25 161.33 4817.59 247.668 4910.24 371.064L4806.04 435.166C4820.73 459.732 4839.74 481.447 4862.15 499.268C4887.29 518.979 4913.09 530.734 4934.29 563.369C4942.5 575.391 4947.98 589.067 4950.32 603.433C4954.45 646.79 4917.83 689.169 4870.16 715.611C4857.58 721.276 4843.88 724.015 4830.08 723.624C4798.77 722.47 4784.98 703.793 4757.94 699.586C4728.28 694.962 4685.08 714.193 4677.78 715.611C4651.29 720.562 4624.11 720.562 4597.62 715.611C4559.85 737.395 4528.71 769.032 4507.53 807.138C4486.35 845.244 4475.93 888.387 4477.38 931.955Z" fill="#156C1E"/>
<path fill-rule="evenodd" clip-rule="evenodd" d="M4389.21 915.929C4289.26 855.914 4219.5 752.918 4212.86 635.484C4209.1 558.189 4231.71 481.91 4276.99 419.14C4318.32 389.749 4356.45 377.025 4389.21 387.089C4424.88 398.05 4442.28 441.936 4477.38 443.178C4496.13 443.843 4514.83 432.593 4533.5 411.127C4512.86 419.104 4490 419.104 4469.37 411.127C4435.76 397.377 4411.9 360.142 4413.26 314.974C4426 309.829 4439.59 307.111 4453.34 306.961C4483.14 307.159 4511.77 318.607 4533.5 339.012C4537.75 321.814 4545.69 305.743 4556.76 291.909C4567.83 278.075 4581.77 266.808 4597.62 258.885C4615.67 257.019 4633.03 250.98 4648.33 241.244C4663.64 231.509 4676.47 218.345 4685.8 202.796C4682.76 230.751 4674.61 257.911 4661.75 282.923C4692.83 308.03 4719.86 337.756 4741.91 371.063C4769.06 412.457 4779.39 455.285 4814.05 499.267C4840.32 532.247 4873.05 559.514 4910.24 579.394C4920.52 590.204 4922.76 602.92 4918.26 611.445C4916.41 614.827 4913.63 617.608 4910.24 619.458C4909.17 613.479 4906.28 607.971 4901.99 603.675C4897.69 599.378 4892.18 596.498 4886.2 595.42C4881.84 594.844 4877.41 595.266 4873.25 596.654C4869.08 598.043 4865.29 600.36 4862.15 603.433C4864.31 612.469 4869.43 620.526 4876.69 626.331C4883.95 632.135 4892.93 635.356 4902.23 635.484C4898.8 644.619 4893.31 652.844 4886.2 659.522C4876.93 667.331 4865.94 672.824 4854.13 675.547C4846.31 678.774 4838.28 681.451 4830.08 683.56C4807.46 686.305 4784.63 680.597 4765.96 667.535C4709.15 689.074 4646.42 689.074 4589.61 667.535C4575.76 659.979 4562.51 652.03 4549.53 643.496C4536.08 634.682 4520.91 624.106 4517.46 627.471C4513.19 631.646 4534.45 652.31 4533.5 675.547C4532.02 711.436 4488.37 728.127 4453.34 763.687C4417.66 799.913 4396.47 850.577 4389.21 915.929Z" fill="white"/>
<path fill-rule="evenodd" clip-rule="evenodd" d="M4677.78 419.14C4662.5 417.449 4645.31 427.209 4645.72 435.165C4646.06 441.784 4658.54 446.88 4677.78 451.191C4696.65 455.421 4707.3 455.806 4709.85 451.191C4713.95 443.747 4698.07 421.383 4677.78 419.14Z" fill="#156C1E"/>
</svg>
